<?xml version="1.0" encoding="UTF-8" standalone="no"?>
<!-- Created with Inkscape (http://www.inkscape.org/) -->

<svg
   width="43.929581mm"
   height="50.831631mm"
   viewBox="0 0 43.929581 50.831631"
   version="1.1"
   id="svg5"
   inkscape:version="1.1.2 (0a00cf5339, 2022-02-04)"
   sodipodi:docname="logo.svg"
   xmlns:inkscape="http://www.inkscape.org/namespaces/inkscape"
   xmlns:sodipodi="http://sodipodi.sourceforge.net/DTD/sodipodi-0.dtd"
   xmlns="http://www.w3.org/2000/svg"
   xmlns:svg="http://www.w3.org/2000/svg">
  <sodipodi:namedview
     id="namedview7"
     pagecolor="#ffffff"
     bordercolor="#000000"
     borderopacity="0.25"
     inkscape:pageshadow="2"
     inkscape:pageopacity="0.0"
     inkscape:pagecheckerboard="0"
     inkscape:document-units="mm"
     showgrid="false"
     showguides="true"
     inkscape:guide-bbox="true"
     fit-margin-top="0"
     fit-margin-left="0"
     fit-margin-right="0"
     fit-margin-bottom="0"
     inkscape:zoom="2.5620932"
     inkscape:cx="123.1415"
     inkscape:cy="74.158116"
     inkscape:window-width="948"
     inkscape:window-height="1039"
     inkscape:window-x="2884"
     inkscape:window-y="40"
     inkscape:window-maximized="0"
     inkscape:current-layer="layer1-5">
    <sodipodi:guide
       position="22.986915,-5.9857383"
       orientation="1,0"
       id="guide1305" />
  </sodipodi:namedview>
  <defs
     id="defs2">
    <inkscape:perspective
       sodipodi:type="inkscape:persp3d"
       inkscape:vp_x="0 : 389.79962 : 1"
       inkscape:vp_y="0 : 999.99992 : 0"
       inkscape:vp_z="1500 : 389.79962 : 1"
       inkscape:persp3d-origin="750 : 95.75417 : 1"
       id="perspective4362" />
    <clipPath
       id="clp12">
      <path
         d="m 45.315,71.927 h 12.92 v 15.867 h -12.92 z"
         id="path184"
         inkscape:connector-curvature="0" />
    </clipPath>
    <clipPath
       id="clp21">
      <path
         d="m 123.91,72.178 h 26.23 v 15.294 h -26.23 z"
         id="path592"
         inkscape:connector-curvature="0" />
    </clipPath>
    <clipPath
       id="clp9">
      <path
         d="m 413.96,49.857 h 31.76 v 8.719 h -31.76 z"
         id="path100"
         inkscape:connector-curvature="0" />
    </clipPath>
  </defs>
  <g
     inkscape:label="Layer 1"
     inkscape:groupmode="layer"
     id="layer1"
     transform="translate(119.52174,-41.981131)">
    <g
       inkscape:label="Layer 1"
       id="layer1-5"
       transform="translate(15.908784,618.61091)">
      <g
         transform="matrix(0.17878894,0,0,0.17878894,637.8644,-1123.0381)"
         id="g4347"
         style="fill:#ffffff;stroke:#00a185">
        <g
           id="g79"
           transform="translate(-698.824,84.861967)"
           style="fill:#ffffff;fill-opacity:1;stroke:#00a185">
          <path
             sodipodi:type="star"
             style="fill:#ffffff;fill-opacity:1;stroke:#00a185;stroke-width:73.9932;stroke-miterlimit:4;stroke-dasharray:none;stroke-opacity:1"
             id="path4560"
             sodipodi:sides="6"
             sodipodi:cx="-5551.2134"
             sodipodi:cy="-204.52565"
             sodipodi:r1="1701.6108"
             sodipodi:r2="1473.6381"
             sodipodi:arg1="1.0471976"
             sodipodi:arg2="1.5707963"
             inkscape:flatsided="true"
             inkscape:rounded="0"
             inkscape:randomized="0"
             inkscape:transform-center-x="1.5731476e-05"
             inkscape:transform-center-y="7.9344316e-05"
             transform="matrix(0,0.08149567,-0.08132553,0,-3520.1392,3565.8571)"
             d="m -4700.408,1269.1126 -1701.6109,-10e-5 -850.8053,-1473.63823 850.8055,-1473.63817 1701.6108,10e-5 850.8054,1473.63823 z" />
        </g>
      </g>
      <text
         xml:space="preserve"
         style="font-size:4.23333px;font-family:sans-serif;-inkscape-font-specification:sans-serif;fill:#fdf0e3;fill-opacity:1;stroke:#4a280d;stroke-width:15;stroke-linecap:round;stroke-linejoin:round;stroke-miterlimit:4;stroke-dasharray:none"
         x="-105.7908"
         y="-558.50726"
         id="text265343"><tspan
           sodipodi:role="line"
           id="tspan265341"
           style="stroke-width:15;stroke-miterlimit:4;stroke-dasharray:none"
           x="-105.7908"
           y="-558.50726" /></text>
      <text
         xml:space="preserve"
         style="font-size:4.23333px;font-family:sans-serif;-inkscape-font-specification:sans-serif;fill:#fdf0e3;fill-opacity:1;stroke:#4a280d;stroke-width:15;stroke-linecap:round;stroke-linejoin:round;stroke-miterlimit:4;stroke-dasharray:none"
         x="-106.25206"
         y="-560.1264"
         id="text268683"><tspan
           sodipodi:role="line"
           id="tspan268681"
           style="stroke-width:15"
           x="-106.25206"
           y="-560.1264" /></text>
      <text
         xml:space="preserve"
         style="font-size:4.23333px;font-family:sans-serif;-inkscape-font-specification:sans-serif;fill:#fdf0e3;fill-opacity:1;stroke:#4a280d;stroke-width:5;stroke-linecap:round;stroke-linejoin:round;stroke-miterlimit:4;stroke-dasharray:none"
         x="-78.450752"
         y="-551.28766"
         id="text270271"><tspan
           sodipodi:role="line"
           id="tspan270269"
           style="stroke-width:5;stroke-miterlimit:4;stroke-dasharray:none"
           x="-78.450752"
           y="-551.28766" /></text>
      <text
         xml:space="preserve"
         style="font-size:4.23333px;font-family:sans-serif;-inkscape-font-specification:sans-serif;fill:#fdf0e3;fill-opacity:1;stroke:#4a280d;stroke-width:4.99999;stroke-linecap:round;stroke-linejoin:round;stroke-miterlimit:4;stroke-dasharray:none"
         x="-75.665482"
         y="-548.79803"
         id="text275393"><tspan
           sodipodi:role="line"
           id="tspan275391"
           style="stroke-width:5"
           x="-75.665482"
           y="-548.79803" /></text>
      <g
         id="g29172"
         transform="translate(0,0.26458331)">
        <g
           id="g29197">
          <g
             id="g1303"
             transform="matrix(0.06205346,0,0,0.06205346,-122.74274,-567.95638)"
             style="fill:#00a185;fill-opacity:1">
            <g
               transform="matrix(0.1,0,0,-0.1,0,462)"
               id="g3"
               style="fill:#00a185;fill-opacity:1">
	
	
	
	
	<path
   d="m 2100.002,1200.996 -24.004,-6.992 31.006,-22.002 c 48.994,-35 115,-62.002 150.996,-62.002 25,0 42.002,7.998 62.998,30.996 54.004,58.008 36.006,69.004 -105.996,68.008 -49.003,-1.006 -101.005,-4.004 -115,-8.008 z"
   id="path13"
   style="fill:#00a185;fill-opacity:1" />

	<path
   d="m 865.002,790 c -117.002,-67.998 -215,-165.996 -215,-215 0,-22.002 27.998,-55 47.002,-55 16.992,0 100,94.004 145.996,167.002 42.998,65 80.996,132.998 75,132.998 -2.002,0 -25,-14.004 -52.998,-30 z"
   id="path15"
   style="fill:#00a185;fill-opacity:1" />

	
	
<g
   id="g2141"
   style="fill:#00a185;fill-opacity:1">
  <path
     d="m 2461.152,4601.186 c -81.006,-21.001 -172.998,-68.999 -239.004,-123.999 -72.002,-60 -150.996,-176.001 -182.002,-267.002 -26.992,-76.997 -25,-22.998 -20.996,-795 2.002,-482.998 2.998,-498.999 22.002,-517.998 20,-20 32.998,-20 577.998,-20 555,0 558.994,0 577.998,21.001 17.998,20 19.004,46.001 22.002,525 l 2.998,503.999 h -515 -513.994 l -6.006,22.998 c -29.999,113.002 32.999,288.002 137.002,383.002 204.004,184 517.998,134 657.002,-103.002 l 35,-58.999 76.992,30 c 43.008,17.002 78.008,35 78.008,40 0,5 -17.002,38.999 -37.002,75 -75,133.999 -224.004,247.001 -377.998,286.001 -74.004,18.999 -222.002,17.998 -295,-1.001 z m 218.994,-907.999 c 75,-38.999 87.002,-142.002 23.008,-202.002 -20,-18.999 -20,-18.999 33.994,-202.998 30,-102.002 52.002,-186.001 50,-188.003 -2.002,-1.997 -80,-1.997 -172.998,-0.996 l -170,2.999 52.998,183.999 52.998,183.999 -28.994,34.004 c -50,55.996 -35,152.998 27.998,186.997 35,18.999 95,20 130.996,2.001 z"
     id="path5"
     style="fill:#00a185;fill-opacity:1" />
  <g
     id="g1634"
     style="fill:#00a185;fill-opacity:1">
    <path
       d="M 1148,3597.998 1145.002,3025 572.004,3022.002 0.002,3020 V 1510 0 h 1495 1495 v 1420 1420 h -460 c -507.998,0 -502.998,-1.001 -532.998,62.002 C 1983.996,2931 1980.998,3016 1978.996,3535 c -0.996,330 2.002,607.998 6.006,617.998 C 1992.004,4168.999 1968,4170 1570.998,4170 H 1150.002 Z M 1477.004,2620 c 93.994,-57.002 106.992,-231.001 41.992,-552.998 l -20,-97.998 47.002,-87.002 c 102.998,-190 280,-447.002 366.006,-530 l 33.994,-32.002 60,12.002 c 32.002,5.996 124.004,12.002 204.004,12.002 128.994,0.996 150,-1.006 192.002,-21.006 C 2518,1270 2518.996,1132.002 2403.996,1030.996 2352.004,985 2283,965 2218,975 c -67.998,10.996 -177.002,67.998 -255.996,134.004 L 1890.002,1170 1748.996,1135 C 1585.002,1092.998 1388,1030 1237.004,970 L 1130.998,927.998 1090.002,845 C 988.996,640 870.998,470.996 792.004,417.002 748.996,387.002 688,372.998 645.998,384.004 608,392.998 548.996,449.004 528.996,495 460.002,647.002 598,815 933.996,985.996 l 95,49.004 57.002,135 c 77.998,184.004 172.998,454.004 225,634.004 37.998,133.994 41.006,152.998 29.004,180 -41.006,98.994 -101.006,290.996 -111.006,354.995 -16.992,113.999 4.004,203.999 63.008,258.003 48.994,45.996 130.996,55.996 185,22.998 z"
       id="path9"
       style="fill:#00a185;fill-opacity:1" />
    <path
       d="m 1377.004,1562.002 c -37.002,-114.004 -90,-262.002 -116.006,-330 C 1223,1137.998 1215.002,1110 1228,1115 c 77.002,30 329.004,112.002 422.002,137.002 62.998,15.996 117.998,32.002 122.002,35 3.994,2.002 -18.008,37.002 -50,77.002 -78.008,96.992 -158.008,212.998 -221.006,318.994 -28.994,47.998 -52.998,87.002 -53.994,87.002 -1.006,0 -32.002,-94.004 -70,-207.998 z"
       id="path11"
       style="fill:#00a185;fill-opacity:1" />
    <path
       d="m 2230.999,4126 c -5.996,-25 -10.996,-70 -10.996,-100 v -56 h 385 385 v 83.999 c 0,46.001 -2.998,91.001 -6.006,100 -5,13.999 -47.998,16.001 -373.994,16.001 h -367.998 z"
       id="path17"
       style="fill:#00a185;fill-opacity:1" />
    <path
       d="m 570.002,3595 -385,-385 H 573 960.002 v 385 c 0,212.002 -1.006,385 -2.998,385 -1.006,0 -175,-172.999 -387.002,-385 z"
       id="path19"
       style="fill:#00a185;fill-opacity:1" />
  </g>
</g>
</g>
            <path
               d="m 134.197,212.819 c -2.5,6.6 0.6,26.6 4.2,27.3 2.199,0.4 3,-5.1 2.6,-18.8 l -0.3,-10.5 -2.7,-0.3 c -2.201,-0.299 -3.001,0.201 -3.8,2.3 z"
               id="path21"
               style="fill:#00a185;fill-opacity:1" />
          </g>
          <g
             aria-label="TABULAPDF"
             id="text19749"
             style="font-weight:bold;font-size:4.25143px;font-family:Gilway;-inkscape-font-specification:'Gilway Bold';fill:#00a185;stroke:#00a185;stroke-width:0.0348086;stroke-linecap:round;stroke-linejoin:round"
             transform="translate(0,-0.52916663)">
            <g
               id="g29147">
              <path
                 d="m -121.02972,-537.52412 v 0.32736 h -0.65472 v 2.61888 h -0.38263 v -2.61888 h -0.65472 v -0.32736 z"
                 style="font-family:'Ubuntu Condensed';-inkscape-font-specification:'Ubuntu Condensed,  Bold'"
                 id="path29101" />
              <path
                 d="m -119.84784,-537.52412 q 0.10204,0.31886 0.19982,0.64622 0.10203,0.3231 0.19557,0.68022 0.0978,0.35712 0.19131,0.75676 0.0978,0.39963 0.19557,0.86304 h -0.38263 q -0.034,-0.19132 -0.0723,-0.37838 -0.034,-0.18706 -0.0723,-0.37412 h -0.92681 q -0.0425,0.18706 -0.0765,0.37412 -0.034,0.18706 -0.068,0.37838 h -0.36988 q 0.0935,-0.46341 0.19132,-0.86304 0.0978,-0.39964 0.19131,-0.75676 0.0978,-0.35712 0.19557,-0.68022 0.10203,-0.32736 0.20407,-0.64622 z m -0.20832,0.43364 q -0.10628,0.35287 -0.20407,0.70999 -0.0978,0.35712 -0.18706,0.73125 h 0.77801 q -0.085,-0.37413 -0.18281,-0.73125 -0.0978,-0.35712 -0.20407,-0.70999 z"
                 style="font-family:'Ubuntu Condensed';-inkscape-font-specification:'Ubuntu Condensed,  Bold'"
                 id="path29103" />
              <path
                 d="m -118.2408,-536.26995 h 0.26358 q 0.52718,0 0.52718,-0.47616 0,-0.1488 -0.0468,-0.24233 -0.0425,-0.0978 -0.11479,-0.1488 -0.0723,-0.0553 -0.17006,-0.0765 -0.0935,-0.0213 -0.19982,-0.0213 -0.0638,0 -0.13179,0.004 -0.0638,0.004 -0.12754,0.0127 z m 0,0.3061 v 1.06286 q 0.0808,0.0127 0.1573,0.0213 0.0808,0.009 0.1573,0.009 0.11904,0 0.22533,-0.0255 0.10628,-0.0255 0.18281,-0.085 0.0808,-0.0595 0.12329,-0.16155 0.0468,-0.10629 0.0468,-0.25934 0,-0.26359 -0.14455,-0.41239 -0.1403,-0.1488 -0.44215,-0.1488 z m -0.38263,-1.51776 q 0.1488,-0.034 0.30185,-0.051 0.1573,-0.0213 0.31035,-0.0213 0.19132,0 0.36137,0.0383 0.17431,0.034 0.30611,0.12329 0.13179,0.085 0.20832,0.22958 0.0808,0.1403 0.0808,0.35287 0,0.26359 -0.11054,0.43364 -0.11054,0.16581 -0.28485,0.24659 0.21683,0.085 0.35712,0.25933 0.1403,0.17431 0.1403,0.48042 0,0.22957 -0.0765,0.38688 -0.0723,0.1573 -0.20832,0.25933 -0.13604,0.0978 -0.32736,0.14455 -0.18706,0.0425 -0.41239,0.0425 -0.1488,0 -0.31035,-0.017 -0.16155,-0.017 -0.33586,-0.051 z"
                 style="font-family:'Ubuntu Condensed';-inkscape-font-specification:'Ubuntu Condensed,  Bold'"
                 id="path29105" />
              <path
                 d="m -115.60917,-534.51411 q -0.41239,0 -0.62071,-0.23383 -0.20407,-0.23383 -0.20407,-0.73975 v -2.03643 h 0.38263 v 2.00242 q 0,0.33586 0.0978,0.50592 0.0978,0.16581 0.35287,0.16581 0.26359,0 0.35712,-0.17006 0.0978,-0.17431 0.0978,-0.50167 v -2.00242 h 0.38263 v 2.03643 q 0,0.49742 -0.21258,0.7355 -0.21257,0.23808 -0.63346,0.23808 z"
                 style="font-family:'Ubuntu Condensed';-inkscape-font-specification:'Ubuntu Condensed,  Bold'"
                 id="path29107" />
              <path
                 d="m -112.76071,-534.90524 v 0.32736 h -1.31369 v -2.94624 h 0.38262 v 2.61888 z"
                 style="font-family:'Ubuntu Condensed';-inkscape-font-specification:'Ubuntu Condensed,  Bold'"
                 id="path29109" />
              <path
                 d="m -111.25996,-537.52412 q 0.10203,0.31886 0.19981,0.64622 0.10204,0.3231 0.19557,0.68022 0.0978,0.35712 0.19131,0.75676 0.0978,0.39963 0.19557,0.86304 h -0.38263 q -0.034,-0.19132 -0.0723,-0.37838 -0.034,-0.18706 -0.0723,-0.37412 h -0.92681 q -0.0425,0.18706 -0.0765,0.37412 -0.034,0.18706 -0.068,0.37838 h -0.36987 q 0.0935,-0.46341 0.19131,-0.86304 0.0978,-0.39964 0.19132,-0.75676 0.0978,-0.35712 0.19556,-0.68022 0.10204,-0.32736 0.20407,-0.64622 z m -0.20832,0.43364 q -0.10629,0.35287 -0.20407,0.70999 -0.0978,0.35712 -0.18706,0.73125 h 0.77801 q -0.085,-0.37413 -0.18281,-0.73125 -0.0978,-0.35712 -0.20407,-0.70999 z"
                 style="font-family:'Ubuntu Condensed';-inkscape-font-specification:'Ubuntu Condensed,  Bold'"
                 id="path29111" />
              <path
                 d="m -110.03556,-537.48161 q 0.2976,-0.0723 0.58245,-0.0723 0.22107,0 0.39963,0.0553 0.18281,0.051 0.31036,0.1658 0.13179,0.11054 0.19981,0.2891 0.0723,0.17856 0.0723,0.42939 0,0.25509 -0.0723,0.4379 -0.0723,0.17856 -0.20406,0.29335 -0.1318,0.11054 -0.31886,0.16155 -0.18281,0.051 -0.40814,0.051 h -0.17856 v 1.09262 h -0.38263 z m 0.38263,1.47525 h 0.15305 q 0.14455,0 0.25934,-0.0298 0.11904,-0.034 0.19982,-0.10629 0.0808,-0.0723 0.12329,-0.18706 0.0425,-0.11479 0.0425,-0.28485 0,-0.17005 -0.0425,-0.28484 -0.0425,-0.11904 -0.11904,-0.18706 -0.0723,-0.0723 -0.17856,-0.10204 -0.10629,-0.0298 -0.23383,-0.0298 -0.11054,0 -0.20407,0.0128 z"
                 style="font-family:'Ubuntu Condensed';-inkscape-font-specification:'Ubuntu Condensed,  Bold'"
                 id="path29113" />
              <path
                 d="m -106.11574,-536.05313 q 0,0.41239 -0.0893,0.70149 -0.085,0.28484 -0.25084,0.4634 -0.16155,0.17856 -0.39538,0.25934 -0.22958,0.0808 -0.51443,0.0808 -0.28909,0 -0.6122,-0.0765 v -2.85696 q 0.16155,-0.034 0.3146,-0.0553 0.15306,-0.0213 0.29335,-0.0213 0.2891,0 0.51868,0.0808 0.23383,0.0808 0.39538,0.25934 0.16581,0.17856 0.25084,0.46766 0.0893,0.28484 0.0893,0.69723 z m -0.40814,0 q 0,-0.3146 -0.0468,-0.53568 -0.0468,-0.22107 -0.14455,-0.36137 -0.0978,-0.1403 -0.25933,-0.20407 -0.15731,-0.0638 -0.37838,-0.0638 -0.0595,0 -0.11904,0.004 -0.0595,0.004 -0.12329,0.0128 v 2.29577 q 0.0638,0.009 0.12329,0.0128 0.0595,0.004 0.11479,0.004 0.22532,0 0.38263,-0.0638 0.1573,-0.0638 0.25508,-0.19981 0.10204,-0.1403 0.1488,-0.36138 0.0468,-0.22107 0.0468,-0.53993 z"
                 style="font-family:'Ubuntu Condensed';-inkscape-font-specification:'Ubuntu Condensed,  Bold'"
                 id="path29115" />
              <path
                 d="m -105.5248,-534.57788 v -2.94624 h 1.32219 v 0.32736 h -0.93956 v 0.92681 h 0.83328 v 0.31886 h -0.83328 v 1.37321 z"
                 style="font-family:'Ubuntu Condensed';-inkscape-font-specification:'Ubuntu Condensed,  Bold'"
                 id="path29117" />
            </g>
          </g>
        </g>
      </g>
    </g>
  </g>
  <style
     type="text/css"
     id="style10296">
	.st0{fill:#75AADB;}
	.st1{fill:#4D4D4D;}
	.st2{fill:#FFFFFF;}
	.st3{fill:url(#SVGID_1_);}
	.st4{fill:url(#SVGID_2_);}
	.st5{fill:url(#SVGID_3_);}
	.st6{fill:url(#SVGID_4_);}
	.st7{fill:url(#SVGID_5_);}
	.st8{fill:url(#SVGID_6_);}
	.st9{fill:url(#SVGID_7_);}
	.st10{fill:url(#SVGID_8_);}
	.st11{fill:url(#SVGID_9_);}
	.st12{fill:url(#SVGID_10_);}
	.st13{opacity:0.18;fill:url(#SVGID_11_);}
	.st14{opacity:0.3;}
</style>
</svg>
